#N canvas 113 240 532 221 10;
#X declare -lib py;
#X declare -lib py;
#X obj 33 140 import py;
#N canvas 260 188 1068 503 maker-sub 0;
#X obj 37 407 print;
#X obj 95 407 print END;
#X obj 37 384 pyx 1 2 make.shellx;
#X obj 306 335 ggee/getdir;
#X obj 306 358 cyclone/prepend cd;
#X obj 179 359 cyclone/prepend set;
#X obj 179 337 cyclone/prepend;
#X obj 179 290 cyclone/prepend && python findreplace.py;
#X obj 77 431 del 100;
#X obj 37 355 import py;
#X obj 179 100 random 100;
#X obj 179 55 t b b;
#X obj 77 454 s findreplace;
#X obj 206 78 s \$0-getdir-findreplace;
#X obj 306 314 r \$0-getdir-findreplace;
#X obj 179 121 + 100;
#X obj 179 171 pack f f f;
#X obj 179 143 t b f;
#X msg 179 383 cd /Users/megrimm/Development/bytebeat~/bytebeat~-make
&& python findreplace.py ../bytebeat~.c ../bytebeat_172~.c oneline
bytebeat_172 && python findreplace.py ../bytebeat_172~.c ../bytebeat_172~.c
v000 v172 && python findreplace.py ../Makefile.base ../Makefile bytebeat
bytebeat_172;
#X msg 179 198 list bytebeat_\$2 v\$3;
#X msg 179 224 ../bytebeat~.c ../\$1~.c oneline \$1 && python findreplace.py
../\$1~.c ../\$1~.c v000 \$2 && python findreplace.py ../Makefile.base
../Makefile bytebeat \$1;
#X obj 559 410 print;
#X obj 614 410 print END;
#X obj 890 272 ggee/getdir;
#X obj 890 295 cyclone/prepend cd;
#X obj 701 384 cyclone/prepend set;
#X obj 701 330 cyclone/prepend;
#X obj 559 387 pyx 1 2 make.shellx;
#X obj 702 142 r findreplace;
#X obj 702 164 t b b;
#X obj 729 189 s \$0-getdir-make;
#X obj 889 247 r \$0-getdir-make;
#X msg 701 408 cd /Users/megrimm/Development/bytebeat~/bytebeat~-make
&& cd .. && make;
#X msg 702 223 make;
#X obj 702 297 cyclone/prepend && cd .. &&;
#X obj 180 28 inlet;
#X connect 2 0 0 0;
#X connect 2 1 1 0;
#X connect 2 1 8 0;
#X connect 3 0 4 0;
#X connect 4 0 6 1;
#X connect 5 0 18 0;
#X connect 6 0 5 0;
#X connect 6 0 2 1;
#X connect 7 0 6 0;
#X connect 8 0 12 0;
#X connect 10 0 15 0;
#X connect 11 0 10 0;
#X connect 11 1 13 0;
#X connect 14 0 3 0;
#X connect 15 0 17 0;
#X connect 16 0 19 0;
#X connect 17 0 16 0;
#X connect 17 1 16 2;
#X connect 17 1 16 1;
#X connect 19 0 20 0;
#X connect 20 0 7 0;
#X connect 23 0 24 0;
#X connect 24 0 26 1;
#X connect 25 0 32 0;
#X connect 26 0 25 0;
#X connect 26 0 27 1;
#X connect 27 0 21 0;
#X connect 27 1 22 0;
#X connect 28 0 29 0;
#X connect 29 0 33 0;
#X connect 29 1 30 0;
#X connect 31 0 23 0;
#X connect 33 0 34 0;
#X connect 34 0 26 0;
#X connect 35 0 11 0;
#X restore 33 113 pd maker-sub;
#X obj 33 44 bng 50 250 50 0 empty empty empty 17 7 0 10 -258113 -33289
-33289;
#X text 128 57 <-- Hitting this bang will automatically generate a
random number \, grab the contents of that line number from the bytebeat~.h
file \, modify the bytebeat~.c and Makefile to reflect that random
bytebeat~ line \, and compile a new object with that random number
in the name.;
#X connect 2 0 1 0;
