#N canvas 627 303 578 503 10;
#X declare -lib py;
#X obj 17 387 print;
#X obj 75 387 print END;
#X obj 17 364 pyx 1 2 make.shellx;
#X obj 286 315 ggee/getdir;
#X obj 286 338 cyclone/prepend cd;
#X obj 159 339 cyclone/prepend set;
#X obj 159 317 cyclone/prepend;
#X obj 159 270 cyclone/prepend && python findreplace.py;
#X obj 57 411 del 100;
#X obj 17 335 import py;
#X obj 159 80 random 100;
#X obj 159 10 bng 15 250 50 0 empty empty empty 17 7 0 10 -262144 -1
-1;
#X obj 159 35 t b b;
#X obj 57 434 s findreplace;
#X obj 186 58 s \$0-getdir-findreplace;
#X obj 286 294 r \$0-getdir-findreplace;
#X obj 159 101 + 100;
#X obj 159 151 pack f f f;
#X obj 159 123 t b f;
#X msg 159 363 cd /Users/megrimm/Desktop/bytebeat~/bytebeat~-make &&
python findreplace.py ../bytebeat~.c ../bytebeat_166~.c oneline bytebeat_166
&& python findreplace.py ../bytebeat_166~.c ../bytebeat_166~.c v000
v166 && python findreplace.py ../Makefile.base ../Makefile bytebeat
bytebeat_166;
#X msg 159 178 list bytebeat_\$2 v\$3;
#X msg 159 204 ../bytebeat~.c ../\$1~.c oneline \$1 && python findreplace.py
../\$1~.c ../\$1~.c v000 \$2 && python findreplace.py ../Makefile.base
../Makefile bytebeat \$1;
#X connect 2 0 0 0;
#X connect 2 1 1 0;
#X connect 2 1 8 0;
#X connect 3 0 4 0;
#X connect 4 0 6 1;
#X connect 5 0 19 0;
#X connect 6 0 5 0;
#X connect 6 0 2 1;
#X connect 7 0 6 0;
#X connect 8 0 13 0;
#X connect 10 0 16 0;
#X connect 11 0 12 0;
#X connect 12 0 10 0;
#X connect 12 1 14 0;
#X connect 15 0 3 0;
#X connect 16 0 18 0;
#X connect 17 0 20 0;
#X connect 18 0 17 0;
#X connect 18 1 17 2;
#X connect 18 1 17 1;
#X connect 20 0 21 0;
#X connect 21 0 7 0;
